<svg xmlns="http://www.w3.org/2000/svg" viewBox="0 0 761.2 254.2" class="logo" role="img">
    <title>Relevant Builders - Functional Family Living</title>
    <path class="logo-icon-roof" d="M305.3 189L190.4 97.4c-.4-.3-.7-.9-.7-1.4V13c0-1-.8-1.8-1.8-1.8h-42.7c-1 0-1.8.8-1.8 1.8v43.2c0 1.5-1.8 2.4-3 1.4L82.1 11.2c-.7-.5-1.6-.5-2.2 0L.7 69.7c-.8.6-1 1.7-.4 2.6L15.4 93c.6.8 1.8 1 2.6.4l61.2-45.3c.7-.5 1.6-.5 2.2 0l185.3 147.6c.3.3.7.4 1.1.4h36.3c1 0 1.8-.8 1.8-1.8v-3.8c.1-.6-.2-1.2-.6-1.5z"/>
    <path class="logo-icon-r" d="M336.1 192.8L273.5 143c-1.2-1-.7-2.9.8-3.2 33-6.2 57.8-32.3 57.8-63.6 0-35.9-32.7-65-73-65h-61.4c-1 0-1.8.8-1.8 1.8v38.5c0 1 .8 1.8 1.8 1.8h62.1c11.7 0 21.1 10.2 21.1 22.8 0 12.6-9.5 22.8-21.1 22.8h-52.4c-1.7 0-2.5 2.2-1.1 3.3L313.9 188c.4.3.7.9.7 1.4v4.9c0 1 .8 1.8 1.8 1.8H335c1.7 0 2.4-2.2 1.1-3.3zM143.3 111v83.3c0 1 .8 1.8 1.8 1.8h42.7c1 0 1.8-.8 1.8-1.8V145c0-.6-.3-1.1-.7-1.4l-42.7-34c-1.1-1-2.9-.1-2.9 1.4zM27.3 106.1l58.8-43.5c1-.7 1-2.2.1-2.9l-4.9-3.9c-.7-.5-1.6-.5-2.2 0L21.6 98.3c-.8.6-1 1.7-.4 2.6l3.5 4.9c.6.7 1.8.9 2.6.3zM136.5 33.9L94.5.4c-.7-.5-1.6-.5-2.2 0L87 4.3c-1 .7-1 2.2-.1 2.9l47.3 37.7c1.2 1 3 .1 3-1.4v-8.1c0-.6-.2-1.1-.7-1.5zM177.4 79.3l.1.1v-.1z"/>
    <path class="logo-relevant" d="M395 70.2V102h-8.1V30.1H418c16.2 0 24.8 6.8 24.8 19.3 0 9.7-5.6 16.7-15.9 19.6l17.4 33h-9.1l-16.4-31.8H395zm22.3-5.9c11.1 0 17.2-5.2 17.2-14.7 0-8.7-5.7-13.5-16-13.5H395v28.1h22.3zM450.8 75.6c0 13.9 8 22.6 20.8 22.6 8.6 0 15.2-4.2 18-11.6l6.9 1.5c-3.2 9.5-13 15.4-25.1 15.4-17.2 0-28.5-11-28.5-27.6 0-17 11.6-28.6 28.8-28.6 9.7 0 17.6 4.1 22.1 11.5 2.7 4.6 3.6 8.4 3.7 16.7h-46.7zm38.8-5.1c-1.1-11.7-7.4-17.9-18.1-17.9-6.2 0-12 2.5-15.7 6.8-2.6 3-3.7 5.6-4.7 11.1h38.5zM504.3 102V30.1h7.4V102h-7.4zM524.7 75.6c0 13.9 8 22.6 20.8 22.6 8.6 0 15.2-4.2 18-11.6l6.9 1.5c-3.2 9.5-13 15.4-25.1 15.4-17.2 0-28.5-11-28.5-27.6 0-17 11.6-28.6 28.8-28.6 9.7 0 17.6 4.1 22.1 11.5 2.7 4.6 3.6 8.4 3.7 16.7h-46.7zm38.8-5.1c-1.1-11.7-7.4-17.9-18.1-17.9-6.2 0-12 2.5-15.7 6.8-2.6 3-3.7 5.6-4.7 11.1h38.5zM600.2 102h-8.9L569 48.9h7.5l19.7 46.8 18.7-46.8h7L600.2 102zM664.5 102c-.6-4.1-.7-4.7-.9-9.1-5.6 7.7-11.7 10.6-22 10.6-13.2 0-21.7-6.4-21.7-16.3 0-11.4 11.5-18.1 30.8-18.1 2.9 0 3.7 0 12.9.4v-2.8c0-10.3-4.5-14.1-16.9-14.1-5.7 0-11 1.3-14 3.6-2.1 1.5-3.2 3.3-3.9 6.7l-7.4-1.3c1.2-5.3 3.4-8.1 8.1-10.7 4.2-2.4 10.1-3.6 17.2-3.6 9.5 0 16.5 2.2 20.2 6.5 2.9 3.1 3.9 6.7 3.9 13.7v24.4c0 4.5.2 7 1.1 10.1h-7.4zm-.9-27c-8.4-.4-10.1-.5-13.6-.5-14.1 0-22.2 4.7-22.2 12.9 0 6.5 5.7 10.9 14 10.9 12.9 0 21.8-8.7 21.8-21.2V75zM718.9 102V68.3c0-10.8-4-15.6-12.9-15.6-11.2 0-19.3 8.4-19.3 20.2V102h-7.4V48.9h7.4v10c4.6-7.9 11.1-11.5 20.1-11.5 7.1 0 13 2.6 16.2 7.3 2.2 3.1 3.2 7.4 3.2 13.7V102h-7.3zM739.4 102h7.3V53.9h14.5v-5h-14.5V35.1l-7.8.6v13.2h-12v5h12.5z"/>
    <path class="logo-builders" d="M386.8 114.8h34.7c7.5 0 12 1 16.4 3.5 6.1 3.5 9.3 8.9 9.3 15 0 4.9-2.4 9.8-6.2 12.8-2.4 1.8-4.6 2.8-9.3 4.2 5.9 1.5 8.3 2.5 11.2 4.9 4.6 4 7 8.6 7 14.3 0 7.6-3.9 13.9-11.1 17.6-4.6 2.4-9.7 3.4-17.5 3.4h-34.6v-75.7zm29.8 32.5c7.2 0 11.3-.8 14.5-2.8 3.3-2.2 5.4-6 5.4-10.1 0-7.5-6.2-11.8-17.1-11.8h-21.8v24.8h19zm4.5 35c11.2 0 17.9-4.9 17.9-13.2 0-3.9-1.7-7.7-4.6-10.3-3.3-3.1-7.5-4.3-14.9-4.3h-22v27.8h23.6zM497.4 190.6v-10.7c-4.6 8-11.6 12.2-20.7 12.2-13.2 0-21.3-8.2-21.3-21.7v-35.8h10.1v35.8c0 5.1 1.1 8.4 3.3 10.7 2.4 2.5 5.9 3.9 9.5 3.9 10 0 18-8.4 18-18.7v-31.6h10.1v56h-9zM526.7 124.5h-10.9v-9.7h10.9v9.7zm-.4 66.1h-10.1v-56h10.1v56zM536.2 190.6v-75.8h10.1v75.8h-10.1zM607.7 190.6h-9.2V181c-5.4 8-11.2 11.1-20.5 11.1-15.3 0-26.1-12-26.1-29.1 0-17.7 10.9-30 26.6-30 8.2 0 13.3 2.5 19.1 9.1v-27.4h10.1v75.9zm-10.1-34.4c-.5-5.2-1.3-7.6-3.8-10.3-3-3.5-8.6-5.8-13.7-5.8-10.4 0-17.1 8.6-17.1 21.9 0 14.5 6.2 23.1 16.7 23.1 4.9 0 9.6-2.2 13.2-5.7 3.2-3.3 4.2-5.9 4.7-11.5v-11.7zM669.8 175.6c-4.2 10.3-14.3 16.5-27.5 16.5-17.8 0-29.7-11.7-29.7-29.2 0-17.6 12.4-29.8 30.1-29.8 10.9 0 19.9 4.8 24.5 13 2.6 4.9 3.7 9.5 3.8 17.3h-47.2c0 6.6.7 9.5 2.6 13.1 2.9 5.1 9.6 8.5 16.6 8.5 5.3 0 10.3-1.8 13.6-5.1 1.4-1.4 2.5-3 3.9-5.9l9.3 1.6zm-9.8-18.8c-.1-5.2-1.1-7.8-3.7-11.1-3.3-4-7.6-5.9-13.4-5.9-5.7 0-10.4 2-13.9 5.8-2.9 3.2-3.9 5.9-4.6 11.2H660zM675.9 190.6v-56h8.8v13.1c3.2-5.6 4.3-7.3 6.7-9.8 2.9-3 7.8-4.9 12.8-4.9.8 0 2.2.1 3.7.2v8.3c-12.2-.9-21.6 7.5-21.8 19.4v29.7h-10.2zM715.3 174.3c1.1 3.2 2.1 4.9 4.2 6.4 3.7 2.6 9.9 4.2 15.9 4.2 9.1 0 15.3-3.6 15.3-9.1 0-4.5-3.8-7.4-11.2-8.6l-13.7-2.2c-11.1-1.8-17.5-7.5-17.5-15.5 0-9.9 9.7-16.5 24.5-16.5 13.6 0 22.4 4.9 25.5 14.2l-9.2 1.7c-3-6-8.3-8.7-16.6-8.7-8.4 0-13.9 3.3-13.9 8.3 0 4.2 3.3 6.7 10.1 7.8l12.8 1.9c13.3 2 19.7 7.5 19.7 16.6 0 10.2-10.7 17.2-26.7 17.2-9.2 0-16.6-2-22.1-6.2-3.4-2.5-5.1-4.9-6.7-9.8l9.6-1.7z"/>
    <path class="logo-tag" d="M576.4 228.3h-5v18.1h-3v-18.1h-3.6v-2.5h3.6c.1-2.5.2-3.4.7-4.6.7-2 2.8-3.3 5.5-3.3.9 0 1.6.1 3.1.3v2.6c-.9-.3-1.3-.3-1.9-.3-2.1 0-3.5.7-3.9 2-.4.9-.4 1-.4 3.3h5v2.5zM592.1 246.4c-.2-1-.2-1.4-.4-3.7-1.7 3.1-3.7 4.3-7.2 4.3-4.3 0-7.2-2.5-7.2-6.2 0-2.3 1.3-4.6 3.5-5.6 1.9-1 4.7-1.5 8.3-1.5.8 0 1.4 0 2.7.1v-.8c0-3.9-1.5-5.3-5.4-5.3-3.1 0-5 1.3-5.5 3.8l-3-.5c.3-1.5.7-2.3 1.5-3.2 1.6-1.7 4.2-2.5 7.7-2.5 3.1 0 5.2.8 6.4 2.4 1 1.4 1.4 3 1.4 6v8.7c0 1.5.1 2.8.5 4h-3.3zM589 236c-5.4 0-8.3 1.7-8.3 4.8 0 2.2 1.7 3.7 4.4 3.7 3.8 0 6.6-3.1 6.6-7.1v-1.3c-1.1 0-2.2-.1-2.7-.1zM623.6 246.4v-12.8c0-2.3-.1-2.8-.7-3.8-.7-1.1-2-1.8-3.3-1.8s-2.6.7-3.7 1.8c-1.2 1.3-1.6 2.7-1.6 5v11.6h-3.1v-13.5c0-1.6-.3-2.6-1-3.5-.8-1-1.9-1.5-3.1-1.5-2.8 0-5.1 2.7-5.1 6.2v12.3h-3.1v-20.6h2.8v4c1.5-3 3.6-4.5 6.4-4.5 2.9 0 5 1.8 5.8 4.9 1.4-3.2 3.7-4.9 6.5-4.9 2.2 0 4.2 1.1 5.3 2.9.8 1.2 1 2.5 1 5.4v12.8h-3.1zM635.4 222.1H632v-3.6h3.5v3.6zm-.1 24.3h-3.2v-20.6h3.2v20.6zM640.7 246.4v-27.9h3.2v27.9h-3.2zM656 248.8c-.7 2-1.6 3.3-2.8 4.1-.8.5-1.8.8-3.2.8-.8 0-1.3-.1-2.4-.3v-2.5c1 .2 1.5.3 2.1.3 1.5 0 2.5-.5 3.3-1.8.4-.7.8-1.5 1.4-3.4l-7.1-20.2h3.3l5.5 15.5 5.6-15.5h2.7l-8.4 23zM677.5 246.4v-27.9h3.2v27.9h-3.2zM689.4 222.1h-3.5v-3.6h3.5v3.6zm-.1 24.3H686v-20.6h3.2v20.6zM703.3 246.4H700l-7.4-20.6h3.6l5.7 16.8 5.7-16.8h2.8l-7.1 20.6zM717.2 222.1h-3.5v-3.6h3.5v3.6zm-.1 24.3h-3.2v-20.6h3.2v20.6zM735.7 246.4v-13.3c0-3.3-1.5-5.1-4.3-5.1-3.3 0-5.8 3-5.8 7.1v11.3h-3.2v-20.6h3v3.8c2.1-3.3 3.8-4.3 6.6-4.3 2.6 0 4.8 1.3 5.9 3.6.5 1 .8 2.6.8 5.6v11.9h-3zM760.4 225.1c-2.8 0-3.6.5-3.9 2.3 1.3 1.5 2 3.2 2 5 0 4-3.3 6.9-7.9 6.9-.5 0-1 0-1.4-.1-.7-.1-1.2-.2-1.3-.2-1.1 0-2.2 1-2.2 2 0 .7.3 1.2 1 1.5.7.3 1.5.4 5.4.5 4.3.1 5.6.3 6.9 1.2 1.5.9 2.3 2.4 2.3 4.1 0 3.9-3.5 5.9-10.4 5.9-6.1 0-9.4-1.9-9.4-5.4 0-2 1-3.3 3.1-4.1-1.5-1.1-2-1.9-2-3.3 0-1.7.8-2.6 2.8-3.6-1.9-1.7-2.7-3.2-2.7-5.5 0-4 3.3-7 7.9-7 1.5 0 2.9.3 4.2 1 .2-1.2.6-2 1.3-2.7.7-.7 1.5-.9 3.5-.9h.8v2.4zm-15.9 23.3c0 .7.3 1.4.8 1.8 1.1 1 3.4 1.5 5.8 1.5 1.7 0 3.5-.3 4.9-.8 1.4-.5 2.2-1.4 2.2-2.6 0-.9-.5-1.5-1.4-2-1-.5-1.4-.5-5-.6-2.1 0-4-.2-5-.3-1.7 1-2.3 1.7-2.3 3zm1.5-16.1c0 2.7 1.8 4.5 4.6 4.5 2.7 0 4.6-1.8 4.6-4.4 0-2.7-1.9-4.7-4.6-4.7-2.6 0-4.6 1.9-4.6 4.6zM398.5 228.3h-5v18.1h-3v-18.1h-3.6v-2.5h3.6c.1-2.5.2-3.4.7-4.6.7-2 2.8-3.3 5.5-3.3.9 0 1.6.1 3.1.3v2.6c-.9-.3-1.3-.3-1.9-.3-2.1 0-3.5.7-3.9 2-.4.9-.4 1-.4 3.3h5v2.5zM414.4 246.4v-3.9c-1.5 2.9-3.7 4.5-6.6 4.5-4.2 0-6.8-3-6.8-8v-13.2h3.2V239c0 1.9.3 3.1 1 3.9.8.9 1.9 1.4 3 1.4 3.2 0 5.7-3.1 5.7-6.9v-11.6h3.2v20.6h-2.7zM435.8 246.4v-13.3c0-3.3-1.5-5.1-4.3-5.1-3.3 0-5.8 3-5.8 7.1v11.3h-3.2v-20.6h3v3.8c2.1-3.3 3.8-4.3 6.6-4.3 2.6 0 4.8 1.3 5.9 3.6.5 1 .8 2.6.8 5.6v11.9h-3zM459.3 239.7c-.5 2.5-1.1 3.7-2.4 5.1-1.5 1.5-3.3 2.2-5.6 2.2-5.3 0-8.7-4.3-8.7-10.8 0-6.5 3.5-10.9 8.9-10.9 4.2 0 7 2.5 7.8 7.2l-2.9.5c-.3-1.6-.5-2.3-1.1-3.1-.9-1.3-2.3-2-3.9-2-3.4 0-5.5 3.1-5.5 8.2 0 5.2 2 8.3 5.4 8.3 2.6 0 4.3-1.8 5-5.1l3 .4zM478.9 222.1h-3.5v-3.6h3.5v3.6zm-.1 24.3h-3.2v-20.6h3.2v20.6zM501.8 236.3c0 6.2-4 10.6-9.5 10.6-5.4 0-9-4.3-9-10.9 0-6.4 3.8-10.8 9.3-10.8 5.7.1 9.2 4.4 9.2 11.1zm-13.5-6.1c-.9 1.3-1.4 3.3-1.4 5.9 0 5.3 2.1 8.3 5.7 8.3s5.8-3.1 5.8-8.2c0-2.8-.5-4.6-1.5-6.1-1-1.4-2.7-2.2-4.3-2.2-1.7 0-3.4.9-4.3 2.3zM518.9 246.4v-13.3c0-3.3-1.5-5.1-4.3-5.1-3.3 0-5.8 3-5.8 7.1v11.3h-3.2v-20.6h3v3.8c2.1-3.3 3.8-4.3 6.6-4.3 2.6 0 4.8 1.3 5.9 3.6.5 1 .8 2.6.8 5.6v11.9h-3zM540.2 246.4c-.2-1-.2-1.4-.4-3.7-1.7 3.1-3.7 4.3-7.2 4.3-4.3 0-7.2-2.5-7.2-6.2 0-2.3 1.3-4.6 3.5-5.6 1.9-1 4.7-1.5 8.3-1.5.8 0 1.4 0 2.7.1v-.8c0-3.9-1.5-5.3-5.4-5.3-3.1 0-5 1.3-5.5 3.8l-3-.5c.3-1.5.7-2.3 1.5-3.2 1.6-1.7 4.2-2.5 7.7-2.5 3.1 0 5.2.8 6.4 2.4 1 1.4 1.4 3 1.4 6v8.7c0 1.5.1 2.8.5 4h-3.3zm-3.1-10.4c-5.4 0-8.3 1.7-8.3 4.8 0 2.2 1.7 3.7 4.4 3.7 3.8 0 6.6-3.1 6.6-7.1v-1.3c-1.1 0-2.2-.1-2.7-.1zM548.3 246.4v-27.9h3.2v27.9h-3.2zM464.3 246.4h3.1v-18.1h4.7v-2.5h-4.7v-5.4l-3 .2-.1 5.2h-3.6v2.5h3.6z"/>
</svg>
