<svg xmlns="http://www.w3.org/2000/svg" viewBox="0 0 336.82 196.08" class="logo logo-compact">
    <path class="logo-roof" d="M305.3,189,190.4,97.4a1.91,1.91,0,0,1-.7-1.4V13a1.79,1.79,0,0,0-1.8-1.8H145.2a1.79,1.79,0,0,0-1.8,1.8V56.2a1.84,1.84,0,0,1-3,1.4L82.1,11.2a1.8,1.8,0,0,0-2.2,0L.7,69.7a1.88,1.88,0,0,0-.4,2.6L15.4,93a1.9,1.9,0,0,0,2.6.4L79.2,48.1a1.8,1.8,0,0,1,2.2,0L266.7,195.7a1.5,1.5,0,0,0,1.1.4h36.3a1.79,1.79,0,0,0,1.8-1.8v-3.8A1.62,1.62,0,0,0,305.3,189Z"/>
    <path class="logo-r" d="M336.1,192.8,273.5,143a1.82,1.82,0,0,1,.8-3.2c33-6.2,57.8-32.3,57.8-63.6,0-35.9-32.7-65-73-65H197.7a1.79,1.79,0,0,0-1.8,1.8V51.5a1.79,1.79,0,0,0,1.8,1.8h62.1c11.7,0,21.1,10.2,21.1,22.8s-9.5,22.8-21.1,22.8H207.4a1.84,1.84,0,0,0-1.1,3.3L313.9,188a1.91,1.91,0,0,1,.7,1.4v4.9a1.79,1.79,0,0,0,1.8,1.8H335a1.86,1.86,0,0,0,1.1-3.3ZM143.3,111v83.3a1.79,1.79,0,0,0,1.8,1.8h42.7a1.79,1.79,0,0,0,1.8-1.8V145a1.75,1.75,0,0,0-.7-1.4l-42.7-34a1.78,1.78,0,0,0-2.9,1.4Zm-116-4.9L86.1,62.6a1.83,1.83,0,0,0,.1-2.9l-4.9-3.9a1.8,1.8,0,0,0-2.2,0L21.6,98.3a1.88,1.88,0,0,0-.4,2.6l3.5,4.9A2,2,0,0,0,27.3,106.1ZM136.5,33.9,94.5.4a1.8,1.8,0,0,0-2.2,0L87,4.3a1.83,1.83,0,0,0-.1,2.9l47.3,37.7a1.84,1.84,0,0,0,3-1.4V35.4A1.8,1.8,0,0,0,136.5,33.9Zm40.9,45.4.1.1v-.1Z"/>
</svg>
