<svg xmlns="http://www.w3.org/2000/svg" viewBox="0 0 761.25 196.08" class="logo logo-no-tag">
    <path d="M305.35,189,190.45,97.38a2,2,0,0,1-.7-1.41V13a1.79,1.79,0,0,0-1.8-1.8h-42.7a1.79,1.79,0,0,0-1.8,1.8V56.18a1.84,1.84,0,0,1-3,1.4L82.15,11.17a1.8,1.8,0,0,0-2.2,0L.75,69.67a1.88,1.88,0,0,0-.4,2.6L15.45,93a1.9,1.9,0,0,0,2.6.41l61.2-45.3a1.8,1.8,0,0,1,2.2,0l185.3,147.6a1.5,1.5,0,0,0,1.1.4h36.3a1.79,1.79,0,0,0,1.8-1.8v-3.81A1.63,1.63,0,0,0,305.35,189Z"/>
    <path d="M336.15,192.78,273.55,143a1.82,1.82,0,0,1,.8-3.19c33-6.2,57.8-32.31,57.8-63.6,0-35.9-32.7-65-73-65h-61.4A1.79,1.79,0,0,0,196,13v38.5a1.79,1.79,0,0,0,1.8,1.8h62.1c11.7,0,21.1,10.2,21.1,22.8s-9.5,22.8-21.1,22.8h-52.4a1.84,1.84,0,0,0-1.1,3.3L314,188a1.93,1.93,0,0,1,.7,1.4v4.9a1.79,1.79,0,0,0,1.8,1.8h18.6a1.86,1.86,0,0,0,1.1-3.3ZM143.35,111v83.31a1.79,1.79,0,0,0,1.8,1.8h42.7a1.79,1.79,0,0,0,1.8-1.8V145a1.72,1.72,0,0,0-.7-1.39l-42.7-34a1.78,1.78,0,0,0-2.9,1.4Zm-116-4.9,58.8-43.5a1.83,1.83,0,0,0,.1-2.9l-4.9-3.9a1.8,1.8,0,0,0-2.2,0L21.65,98.28a1.88,1.88,0,0,0-.4,2.6l3.5,4.9A2,2,0,0,0,27.35,106.07Zm109.2-72.19L94.55.38a1.8,1.8,0,0,0-2.2,0l-5.3,3.9a1.83,1.83,0,0,0-.1,2.9l47.3,37.7a1.84,1.84,0,0,0,3-1.41V35.38A1.8,1.8,0,0,0,136.55,33.88Zm40.9,45.4.1.1v-.1Z"/><path d="M395.05,70.17V102H387V30.08h31.1c16.2,0,24.8,6.8,24.8,19.3,0,9.7-5.6,16.7-15.9,19.59l17.4,33h-9.1l-16.4-31.8Zm22.3-5.9c11.1,0,17.2-5.2,17.2-14.7,0-8.7-5.7-13.5-16-13.5h-23.5v28.1h22.3Zm33.5,11.3c0,13.9,8,22.6,20.8,22.6,8.6,0,15.2-4.2,18-11.6l6.9,1.5c-3.2,9.5-13,15.4-25.1,15.4-17.2,0-28.5-11-28.5-27.59,0-17,11.6-28.6,28.8-28.6,9.7,0,17.6,4.1,22.1,11.5,2.7,4.6,3.6,8.4,3.7,16.69h-46.7Zm38.8-5.1c-1.1-11.7-7.4-17.9-18.1-17.9a20.67,20.67,0,0,0-15.7,6.8c-2.6,3-3.7,5.6-4.7,11.1Zm14.7,31.5V30.08h7.4V102Zm20.4-26.4c0,13.9,8,22.6,20.8,22.6,8.6,0,15.2-4.2,18-11.6l6.9,1.5c-3.2,9.5-13,15.4-25.1,15.4-17.2,0-28.5-11-28.5-27.59,0-17,11.6-28.6,28.8-28.6,9.7,0,17.6,4.1,22.1,11.5,2.7,4.6,3.6,8.4,3.7,16.69h-46.7Zm38.8-5.1c-1.1-11.7-7.4-17.9-18.1-17.9a20.67,20.67,0,0,0-15.7,6.8c-2.6,3-3.7,5.6-4.7,11.1Zm36.7,31.5h-8.9l-22.3-53.09h7.5l19.7,46.79L615,48.87h7Zm64.3,0a64.94,64.94,0,0,1-.9-9.09c-5.6,7.69-11.7,10.59-22,10.59-13.2,0-21.7-6.4-21.7-16.3,0-11.4,11.5-18.1,30.8-18.1,2.9,0,3.7,0,12.9.4v-2.8c0-10.3-4.5-14.1-16.9-14.1-5.7,0-11,1.3-14,3.6-2.1,1.5-3.2,3.3-3.9,6.7l-7.4-1.3c1.2-5.3,3.4-8.1,8.1-10.7,4.2-2.4,10.1-3.6,17.2-3.6,9.5,0,16.5,2.2,20.2,6.5,2.9,3.1,3.9,6.7,3.9,13.7V91.88c0,4.5.2,7,1.1,10.09Zm-.9-27c-8.4-.4-10.1-.5-13.6-.5-14.1,0-22.2,4.7-22.2,12.91,0,6.5,5.7,10.9,14,10.9,12.9,0,21.8-8.7,21.8-21.2ZM719,102V68.28c0-10.8-4-15.6-12.9-15.6-11.2,0-19.3,8.4-19.3,20.2V102h-7.4V48.88h7.4v10c4.6-7.91,11.1-11.5,20.1-11.5,7.1,0,13,2.59,16.2,7.3,2.2,3.09,3.2,7.4,3.2,13.7V102Zm20.5,0h7.3V53.88h14.5v-5h-14.5V35.07l-7.8.6v13.2H727v5h12.5Z"/><path d="M386.85,114.78h34.7c7.5,0,12,1,16.4,3.5,6.1,3.5,9.3,8.9,9.3,15a16.68,16.68,0,0,1-6.2,12.8c-2.4,1.8-4.6,2.8-9.3,4.2,5.9,1.5,8.3,2.5,11.2,4.89,4.6,4,7,8.61,7,14.3,0,7.61-3.9,13.9-11.1,17.61-4.6,2.39-9.7,3.39-17.5,3.39h-34.6V114.78Zm29.8,32.5c7.2,0,11.3-.81,14.5-2.81a12.19,12.19,0,0,0,5.4-10.1c0-7.5-6.2-11.8-17.1-11.8h-21.8v24.8h19Zm4.5,35c11.2,0,17.9-4.9,17.9-13.2a13.94,13.94,0,0,0-4.6-10.3c-3.3-3.11-7.5-4.31-14.9-4.31h-22v27.81Zm76.3,8.3v-10.7c-4.6,8-11.6,12.2-20.7,12.2-13.2,0-21.3-8.2-21.3-21.7v-35.8h10.1v35.8c0,5.1,1.1,8.4,3.3,10.7a13.21,13.21,0,0,0,9.5,3.89c10,0,18-8.39,18-18.69V134.67h10.1v56h-9Zm29.3-66.11h-10.9v-9.69h10.9Zm-.4,66.11h-10.1v-56h10.1Zm9.9,0v-75.8h10.1v75.8Zm71.5,0h-9.2V181c-5.4,8-11.2,11.11-20.5,11.11-15.3,0-26.1-12-26.1-29.11,0-17.69,10.9-30,26.6-30,8.2,0,13.3,2.5,19.1,9.11v-27.4h10.1v75.9Zm-10.1-34.4c-.5-5.2-1.3-7.6-3.8-10.3-3-3.5-8.6-5.8-13.7-5.8-10.4,0-17.1,8.6-17.1,21.89,0,14.5,6.2,23.11,16.7,23.11a19.18,19.18,0,0,0,13.2-5.7c3.2-3.3,4.2-5.9,4.7-11.5v-11.7Zm72.2,19.4c-4.2,10.3-14.3,16.5-27.5,16.5-17.8,0-29.7-11.7-29.7-29.2s12.4-29.8,30.1-29.8c10.9,0,19.9,4.8,24.5,13,2.6,4.89,3.7,9.5,3.8,17.3h-47.2c0,6.6.7,9.5,2.6,13.1,2.9,5.1,9.6,8.5,16.6,8.5,5.3,0,10.3-1.8,13.6-5.1a20,20,0,0,0,3.9-5.9l9.3,1.6Zm-9.8-18.8c-.1-5.2-1.1-7.81-3.7-11.11-3.3-4-7.6-5.89-13.4-5.89a18.17,18.17,0,0,0-13.9,5.8c-2.9,3.2-3.9,5.89-4.6,11.2Zm15.9,33.8v-56h8.8v13.1c3.2-5.6,4.3-7.3,6.7-9.8,2.9-3,7.8-4.9,12.8-4.9.8,0,2.2.1,3.7.2v8.3c-12.2-.9-21.6,7.5-21.8,19.4v29.7Zm39.4-16.3c1.1,3.19,2.1,4.89,4.2,6.39,3.7,2.61,9.9,4.2,15.9,4.2,9.1,0,15.3-3.6,15.3-9.1,0-4.5-3.8-7.4-11.2-8.6l-13.7-2.2c-11.1-1.8-17.5-7.5-17.5-15.5,0-9.9,9.7-16.5,24.5-16.5,13.6,0,22.4,4.9,25.5,14.2l-9.2,1.7c-3-6-8.3-8.7-16.6-8.7s-13.9,3.3-13.9,8.3c0,4.2,3.3,6.7,10.1,7.8l12.8,1.9c13.3,2,19.7,7.5,19.7,16.6,0,10.2-10.7,17.2-26.7,17.2-9.2,0-16.6-2-22.1-6.2-3.4-2.5-5.1-4.9-6.7-9.8l9.6-1.7Z"/>
</svg>
